<mxfile host="app.diagrams.net" modified="2024-04-26T06:16:58.520Z" agent="Mozilla/5.0 (Windows NT 10.0; Win64; x64) AppleWebKit/537.36 (KHTML, like Gecko) Chrome/124.0.0.0 Safari/537.36" etag="76gZl2mfzvh8DkeiTazx" version="24.0.0" type="device">
  <diagram id="C5RBs43oDa-KdzZeNtuy" name="Page-1">
    <mxGraphModel dx="2634" dy="1180" grid="1" gridSize="10" guides="1" tooltips="1" connect="1" arrows="1" fold="1" page="0" pageScale="1" pageWidth="827" pageHeight="1169" math="0" shadow="0">
      <root>
        <mxCell id="WIyWlLk6GJQsqaUBKTNV-0" />
        <mxCell id="WIyWlLk6GJQsqaUBKTNV-1" parent="WIyWlLk6GJQsqaUBKTNV-0" />
        <mxCell id="zkfFHV4jXpPFQw0GAbJ--0" value="User" style="swimlane;fontStyle=2;align=center;verticalAlign=top;childLayout=stackLayout;horizontal=1;startSize=26;horizontalStack=0;resizeParent=1;resizeLast=0;collapsible=1;marginBottom=0;rounded=0;shadow=0;strokeWidth=1;" parent="WIyWlLk6GJQsqaUBKTNV-1" vertex="1">
          <mxGeometry x="150" y="20" width="280" height="390" as="geometry">
            <mxRectangle x="230" y="140" width="160" height="26" as="alternateBounds" />
          </mxGeometry>
        </mxCell>
        <mxCell id="zkfFHV4jXpPFQw0GAbJ--1" value="-firstName: String" style="text;align=left;verticalAlign=top;spacingLeft=4;spacingRight=4;overflow=hidden;rotatable=0;points=[[0,0.5],[1,0.5]];portConstraint=eastwest;" parent="zkfFHV4jXpPFQw0GAbJ--0" vertex="1">
          <mxGeometry y="26" width="280" height="26" as="geometry" />
        </mxCell>
        <mxCell id="Ait7-vDdtjPDSOxOyq5Q-1" style="edgeStyle=orthogonalEdgeStyle;rounded=0;orthogonalLoop=1;jettySize=auto;html=1;exitX=1;exitY=0.5;exitDx=0;exitDy=0;" parent="zkfFHV4jXpPFQw0GAbJ--0" edge="1">
          <mxGeometry relative="1" as="geometry">
            <mxPoint x="160" y="65" as="sourcePoint" />
            <mxPoint x="160" y="65" as="targetPoint" />
          </mxGeometry>
        </mxCell>
        <mxCell id="Ait7-vDdtjPDSOxOyq5Q-3" value="-lastName: String" style="text;align=left;verticalAlign=top;spacingLeft=4;spacingRight=4;overflow=hidden;rotatable=0;points=[[0,0.5],[1,0.5]];portConstraint=eastwest;" parent="zkfFHV4jXpPFQw0GAbJ--0" vertex="1">
          <mxGeometry y="52" width="280" height="26" as="geometry" />
        </mxCell>
        <mxCell id="Ait7-vDdtjPDSOxOyq5Q-2" value="-xp: long" style="text;align=left;verticalAlign=top;spacingLeft=4;spacingRight=4;overflow=hidden;rotatable=0;points=[[0,0.5],[1,0.5]];portConstraint=eastwest;" parent="zkfFHV4jXpPFQw0GAbJ--0" vertex="1">
          <mxGeometry y="78" width="280" height="26" as="geometry" />
        </mxCell>
        <mxCell id="C3vCpBQqvzBGAhVynjBl-0" value="-streak: long" style="text;align=left;verticalAlign=top;spacingLeft=4;spacingRight=4;overflow=hidden;rotatable=0;points=[[0,0.5],[1,0.5]];portConstraint=eastwest;" parent="zkfFHV4jXpPFQw0GAbJ--0" vertex="1">
          <mxGeometry y="104" width="280" height="26" as="geometry" />
        </mxCell>
        <mxCell id="Ait7-vDdtjPDSOxOyq5Q-4" value="-userTasks: TaskList" style="text;align=left;verticalAlign=top;spacingLeft=4;spacingRight=4;overflow=hidden;rotatable=0;points=[[0,0.5],[1,0.5]];portConstraint=eastwest;" parent="zkfFHV4jXpPFQw0GAbJ--0" vertex="1">
          <mxGeometry y="130" width="280" height="26" as="geometry" />
        </mxCell>
        <mxCell id="Ait7-vDdtjPDSOxOyq5Q-5" value="-gardenStruct: String" style="text;align=left;verticalAlign=top;spacingLeft=4;spacingRight=4;overflow=hidden;rotatable=0;points=[[0,0.5],[1,0.5]];portConstraint=eastwest;" parent="zkfFHV4jXpPFQw0GAbJ--0" vertex="1">
          <mxGeometry y="156" width="280" height="26" as="geometry" />
        </mxCell>
        <mxCell id="Ait7-vDdtjPDSOxOyq5Q-7" value="-dailyObjectives: DailyObjectives()" style="text;align=left;verticalAlign=top;spacingLeft=4;spacingRight=4;overflow=hidden;rotatable=0;points=[[0,0.5],[1,0.5]];portConstraint=eastwest;" parent="zkfFHV4jXpPFQw0GAbJ--0" vertex="1">
          <mxGeometry y="182" width="280" height="26" as="geometry" />
        </mxCell>
        <mxCell id="Ait7-vDdtjPDSOxOyq5Q-8" value="-weeklyObjectives: WeeklyObjectives" style="text;align=left;verticalAlign=top;spacingLeft=4;spacingRight=4;overflow=hidden;rotatable=0;points=[[0,0.5],[1,0.5]];portConstraint=eastwest;" parent="zkfFHV4jXpPFQw0GAbJ--0" vertex="1">
          <mxGeometry y="208" width="280" height="26" as="geometry" />
        </mxCell>
        <mxCell id="Ait7-vDdtjPDSOxOyq5Q-41" value="-TaskList: Task[]" style="text;align=left;verticalAlign=top;spacingLeft=4;spacingRight=4;overflow=hidden;rotatable=0;points=[[0,0.5],[1,0.5]];portConstraint=eastwest;rounded=0;shadow=0;html=0;" parent="zkfFHV4jXpPFQw0GAbJ--0" vertex="1">
          <mxGeometry y="234" width="280" height="26" as="geometry" />
        </mxCell>
        <mxCell id="C3vCpBQqvzBGAhVynjBl-1" value="-Pic_ID: int" style="text;align=left;verticalAlign=top;spacingLeft=4;spacingRight=4;overflow=hidden;rotatable=0;points=[[0,0.5],[1,0.5]];portConstraint=eastwest;" parent="zkfFHV4jXpPFQw0GAbJ--0" vertex="1">
          <mxGeometry y="260" width="280" height="26" as="geometry" />
        </mxCell>
        <mxCell id="hJcpjJ_fGHvMyjLJlIIc-46" value="-major: String" style="text;align=left;verticalAlign=top;spacingLeft=4;spacingRight=4;overflow=hidden;rotatable=0;points=[[0,0.5],[1,0.5]];portConstraint=eastwest;" parent="zkfFHV4jXpPFQw0GAbJ--0" vertex="1">
          <mxGeometry y="286" width="280" height="26" as="geometry" />
        </mxCell>
        <mxCell id="zkfFHV4jXpPFQw0GAbJ--4" value="" style="line;html=1;strokeWidth=1;align=left;verticalAlign=middle;spacingTop=-1;spacingLeft=3;spacingRight=3;rotatable=0;labelPosition=right;points=[];portConstraint=eastwest;" parent="zkfFHV4jXpPFQw0GAbJ--0" vertex="1">
          <mxGeometry y="312" width="280" height="8" as="geometry" />
        </mxCell>
        <mxCell id="Ait7-vDdtjPDSOxOyq5Q-12" value="+User(): User" style="text;align=left;verticalAlign=top;spacingLeft=4;spacingRight=4;overflow=hidden;rotatable=0;points=[[0,0.5],[1,0.5]];portConstraint=eastwest;" parent="zkfFHV4jXpPFQw0GAbJ--0" vertex="1">
          <mxGeometry y="320" width="280" height="26" as="geometry" />
        </mxCell>
        <mxCell id="YVFFXtC8Z3cBLg9flGzX-17" value="+User(String firstName,&#xa;Â String lastName, int picId): User" style="text;align=left;verticalAlign=top;spacingLeft=4;spacingRight=4;overflow=hidden;rotatable=0;points=[[0,0.5],[1,0.5]];portConstraint=eastwest;" parent="zkfFHV4jXpPFQw0GAbJ--0" vertex="1">
          <mxGeometry y="346" width="280" height="44" as="geometry" />
        </mxCell>
        <mxCell id="zkfFHV4jXpPFQw0GAbJ--6" value="BasicTask" style="swimlane;fontStyle=0;align=center;verticalAlign=top;childLayout=stackLayout;horizontal=1;startSize=26;horizontalStack=0;resizeParent=1;resizeLast=0;collapsible=1;marginBottom=0;rounded=0;shadow=0;strokeWidth=1;" parent="WIyWlLk6GJQsqaUBKTNV-1" vertex="1">
          <mxGeometry x="1670" y="370" width="350" height="216" as="geometry">
            <mxRectangle x="130" y="380" width="160" height="26" as="alternateBounds" />
          </mxGeometry>
        </mxCell>
        <mxCell id="zkfFHV4jXpPFQw0GAbJ--7" value="-name: String" style="text;align=left;verticalAlign=top;spacingLeft=4;spacingRight=4;overflow=hidden;rotatable=0;points=[[0,0.5],[1,0.5]];portConstraint=eastwest;" parent="zkfFHV4jXpPFQw0GAbJ--6" vertex="1">
          <mxGeometry y="26" width="350" height="26" as="geometry" />
        </mxCell>
        <mxCell id="Ait7-vDdtjPDSOxOyq5Q-15" value="-timeReq: int" style="text;align=left;verticalAlign=top;spacingLeft=4;spacingRight=4;overflow=hidden;rotatable=0;points=[[0,0.5],[1,0.5]];portConstraint=eastwest;" parent="zkfFHV4jXpPFQw0GAbJ--6" vertex="1">
          <mxGeometry y="52" width="350" height="26" as="geometry" />
        </mxCell>
        <mxCell id="Ait7-vDdtjPDSOxOyq5Q-32" value="-isCompleted: bool" style="text;align=left;verticalAlign=top;spacingLeft=4;spacingRight=4;overflow=hidden;rotatable=0;points=[[0,0.5],[1,0.5]];portConstraint=eastwest;" parent="zkfFHV4jXpPFQw0GAbJ--6" vertex="1">
          <mxGeometry y="78" width="350" height="26" as="geometry" />
        </mxCell>
        <mxCell id="zkfFHV4jXpPFQw0GAbJ--9" value="" style="line;html=1;strokeWidth=1;align=left;verticalAlign=middle;spacingTop=-1;spacingLeft=3;spacingRight=3;rotatable=0;labelPosition=right;points=[];portConstraint=eastwest;" parent="zkfFHV4jXpPFQw0GAbJ--6" vertex="1">
          <mxGeometry y="104" width="350" height="8" as="geometry" />
        </mxCell>
        <mxCell id="Ait7-vDdtjPDSOxOyq5Q-33" value="+getName(): String" style="text;align=left;verticalAlign=top;spacingLeft=4;spacingRight=4;overflow=hidden;rotatable=0;points=[[0,0.5],[1,0.5]];portConstraint=eastwest;" parent="zkfFHV4jXpPFQw0GAbJ--6" vertex="1">
          <mxGeometry y="112" width="350" height="26" as="geometry" />
        </mxCell>
        <mxCell id="MwernL8HgeCR46YI8Lrl-2" value="+getTimeWorked(): int" style="text;align=left;verticalAlign=top;spacingLeft=4;spacingRight=4;overflow=hidden;rotatable=0;points=[[0,0.5],[1,0.5]];portConstraint=eastwest;" parent="zkfFHV4jXpPFQw0GAbJ--6" vertex="1">
          <mxGeometry y="138" width="350" height="26" as="geometry" />
        </mxCell>
        <mxCell id="YsbC0YVXDWHpj4dUOPJS-13" value="+getTimeRequired(): int" style="text;align=left;verticalAlign=top;spacingLeft=4;spacingRight=4;overflow=hidden;rotatable=0;points=[[0,0.5],[1,0.5]];portConstraint=eastwest;" parent="zkfFHV4jXpPFQw0GAbJ--6" vertex="1">
          <mxGeometry y="164" width="350" height="26" as="geometry" />
        </mxCell>
        <mxCell id="JmXwxItgRHhsriWNvllp-20" value="+getIsCompleted(): boolean" style="text;align=left;verticalAlign=top;spacingLeft=4;spacingRight=4;overflow=hidden;rotatable=0;points=[[0,0.5],[1,0.5]];portConstraint=eastwest;" vertex="1" parent="zkfFHV4jXpPFQw0GAbJ--6">
          <mxGeometry y="190" width="350" height="26" as="geometry" />
        </mxCell>
        <mxCell id="zkfFHV4jXpPFQw0GAbJ--17" value="TaskList" style="swimlane;fontStyle=0;align=center;verticalAlign=top;childLayout=stackLayout;horizontal=1;startSize=26;horizontalStack=0;resizeParent=1;resizeLast=0;collapsible=1;marginBottom=0;rounded=0;shadow=0;strokeWidth=1;" parent="WIyWlLk6GJQsqaUBKTNV-1" vertex="1">
          <mxGeometry x="520" y="90" width="270" height="200" as="geometry">
            <mxRectangle x="550" y="140" width="160" height="26" as="alternateBounds" />
          </mxGeometry>
        </mxCell>
        <mxCell id="zkfFHV4jXpPFQw0GAbJ--20" value="-TaskList: Task[]" style="text;align=left;verticalAlign=top;spacingLeft=4;spacingRight=4;overflow=hidden;rotatable=0;points=[[0,0.5],[1,0.5]];portConstraint=eastwest;rounded=0;shadow=0;html=0;" parent="zkfFHV4jXpPFQw0GAbJ--17" vertex="1">
          <mxGeometry y="26" width="270" height="26" as="geometry" />
        </mxCell>
        <mxCell id="zkfFHV4jXpPFQw0GAbJ--23" value="" style="line;html=1;strokeWidth=1;align=left;verticalAlign=middle;spacingTop=-1;spacingLeft=3;spacingRight=3;rotatable=0;labelPosition=right;points=[];portConstraint=eastwest;" parent="zkfFHV4jXpPFQw0GAbJ--17" vertex="1">
          <mxGeometry y="52" width="270" height="8" as="geometry" />
        </mxCell>
        <mxCell id="Ait7-vDdtjPDSOxOyq5Q-19" value="+TaskList(): TaskList" style="text;align=left;verticalAlign=top;spacingLeft=4;spacingRight=4;overflow=hidden;rotatable=0;points=[[0,0.5],[1,0.5]];portConstraint=eastwest;" parent="zkfFHV4jXpPFQw0GAbJ--17" vertex="1">
          <mxGeometry y="60" width="270" height="26" as="geometry" />
        </mxCell>
        <mxCell id="Ait7-vDdtjPDSOxOyq5Q-26" value="+TaskList(task: Task): TaskList" style="text;align=left;verticalAlign=top;spacingLeft=4;spacingRight=4;overflow=hidden;rotatable=0;points=[[0,0.5],[1,0.5]];portConstraint=eastwest;" parent="zkfFHV4jXpPFQw0GAbJ--17" vertex="1">
          <mxGeometry y="86" width="270" height="26" as="geometry" />
        </mxCell>
        <mxCell id="Ait7-vDdtjPDSOxOyq5Q-20" value="+removeTask(index: int): void" style="text;align=left;verticalAlign=top;spacingLeft=4;spacingRight=4;overflow=hidden;rotatable=0;points=[[0,0.5],[1,0.5]];portConstraint=eastwest;" parent="zkfFHV4jXpPFQw0GAbJ--17" vertex="1">
          <mxGeometry y="112" width="270" height="26" as="geometry" />
        </mxCell>
        <mxCell id="JmXwxItgRHhsriWNvllp-24" value="+getTask(index: int): void" style="text;align=left;verticalAlign=top;spacingLeft=4;spacingRight=4;overflow=hidden;rotatable=0;points=[[0,0.5],[1,0.5]];portConstraint=eastwest;" vertex="1" parent="zkfFHV4jXpPFQw0GAbJ--17">
          <mxGeometry y="138" width="270" height="26" as="geometry" />
        </mxCell>
        <mxCell id="Ait7-vDdtjPDSOxOyq5Q-21" value="+logTasks(): void" style="text;align=left;verticalAlign=top;spacingLeft=4;spacingRight=4;overflow=hidden;rotatable=0;points=[[0,0.5],[1,0.5]];portConstraint=eastwest;" parent="zkfFHV4jXpPFQw0GAbJ--17" vertex="1">
          <mxGeometry y="164" width="270" height="26" as="geometry" />
        </mxCell>
        <mxCell id="ALS_S0XjJy4cKC-Rlqwt-0" value="Task" style="swimlane;fontStyle=0;align=center;verticalAlign=top;childLayout=stackLayout;horizontal=1;startSize=26;horizontalStack=0;resizeParent=1;resizeLast=0;collapsible=1;marginBottom=0;rounded=0;shadow=0;strokeWidth=1;" parent="WIyWlLk6GJQsqaUBKTNV-1" vertex="1">
          <mxGeometry x="850" y="76" width="580" height="400" as="geometry">
            <mxRectangle x="130" y="380" width="160" height="26" as="alternateBounds" />
          </mxGeometry>
        </mxCell>
        <mxCell id="YsbC0YVXDWHpj4dUOPJS-16" value="+addSubTask(subtask: SubTask): void" style="text;align=left;verticalAlign=top;spacingLeft=4;spacingRight=4;overflow=hidden;rotatable=0;points=[[0,0.5],[1,0.5]];portConstraint=eastwest;" parent="ALS_S0XjJy4cKC-Rlqwt-0" vertex="1">
          <mxGeometry y="26" width="580" height="26" as="geometry" />
        </mxCell>
        <mxCell id="YsbC0YVXDWHpj4dUOPJS-15" value="+getQueueScore(): int" style="text;align=left;verticalAlign=top;spacingLeft=4;spacingRight=4;overflow=hidden;rotatable=0;points=[[0,0.5],[1,0.5]];portConstraint=eastwest;" parent="ALS_S0XjJy4cKC-Rlqwt-0" vertex="1">
          <mxGeometry y="52" width="580" height="26" as="geometry" />
        </mxCell>
        <mxCell id="YsbC0YVXDWHpj4dUOPJS-14" value="+getInfo(): String" style="text;align=left;verticalAlign=top;spacingLeft=4;spacingRight=4;overflow=hidden;rotatable=0;points=[[0,0.5],[1,0.5]];portConstraint=eastwest;" parent="ALS_S0XjJy4cKC-Rlqwt-0" vertex="1">
          <mxGeometry y="78" width="580" height="26" as="geometry" />
        </mxCell>
        <mxCell id="ALS_S0XjJy4cKC-Rlqwt-14" value="+getSubTaskListSize(): int" style="text;align=left;verticalAlign=top;spacingLeft=4;spacingRight=4;overflow=hidden;rotatable=0;points=[[0,0.5],[1,0.5]];portConstraint=eastwest;" parent="ALS_S0XjJy4cKC-Rlqwt-0" vertex="1">
          <mxGeometry y="104" width="580" height="26" as="geometry" />
        </mxCell>
        <mxCell id="ALS_S0XjJy4cKC-Rlqwt-13" value="+getSubTask(index: int): SubTask" style="text;align=left;verticalAlign=top;spacingLeft=4;spacingRight=4;overflow=hidden;rotatable=0;points=[[0,0.5],[1,0.5]];portConstraint=eastwest;" parent="ALS_S0XjJy4cKC-Rlqwt-0" vertex="1">
          <mxGeometry y="130" width="580" height="26" as="geometry" />
        </mxCell>
        <mxCell id="JmXwxItgRHhsriWNvllp-22" value="+Task(name: String, timeReq: int, taskPriority: priorityLevels, dueDate: Date(), subtaskList: SubTask[]): Task&#xa;" style="text;align=left;verticalAlign=top;spacingLeft=4;spacingRight=4;overflow=hidden;rotatable=0;points=[[0,0.5],[1,0.5]];portConstraint=eastwest;" vertex="1" parent="ALS_S0XjJy4cKC-Rlqwt-0">
          <mxGeometry y="156" width="580" height="26" as="geometry" />
        </mxCell>
        <mxCell id="ALS_S0XjJy4cKC-Rlqwt-11" value="" style="line;html=1;strokeWidth=1;align=left;verticalAlign=middle;spacingTop=-1;spacingLeft=3;spacingRight=3;rotatable=0;labelPosition=right;points=[];portConstraint=eastwest;" parent="ALS_S0XjJy4cKC-Rlqwt-0" vertex="1">
          <mxGeometry y="182" width="580" height="8" as="geometry" />
        </mxCell>
        <mxCell id="ALS_S0XjJy4cKC-Rlqwt-10" value="-subTasksList: SubTask[]" style="text;align=left;verticalAlign=top;spacingLeft=4;spacingRight=4;overflow=hidden;rotatable=0;points=[[0,0.5],[1,0.5]];portConstraint=eastwest;" parent="ALS_S0XjJy4cKC-Rlqwt-0" vertex="1">
          <mxGeometry y="190" width="580" height="26" as="geometry" />
        </mxCell>
        <mxCell id="ALS_S0XjJy4cKC-Rlqwt-7" value="-taskPriority: priorityLevels" style="text;align=left;verticalAlign=top;spacingLeft=4;spacingRight=4;overflow=hidden;rotatable=0;points=[[0,0.5],[1,0.5]];portConstraint=eastwest;" parent="ALS_S0XjJy4cKC-Rlqwt-0" vertex="1">
          <mxGeometry y="216" width="580" height="26" as="geometry" />
        </mxCell>
        <mxCell id="ALS_S0XjJy4cKC-Rlqwt-6" value="-priorityLevels: enum {&quot;low&quot;,&quot;medium&quot;,&quot;high&quot;}" style="text;align=left;verticalAlign=top;spacingLeft=4;spacingRight=4;overflow=hidden;rotatable=0;points=[[0,0.5],[1,0.5]];portConstraint=eastwest;" parent="ALS_S0XjJy4cKC-Rlqwt-0" vertex="1">
          <mxGeometry y="242" width="580" height="26" as="geometry" />
        </mxCell>
        <mxCell id="hJcpjJ_fGHvMyjLJlIIc-43" value="-timeReq: int" style="text;align=left;verticalAlign=top;spacingLeft=4;spacingRight=4;overflow=hidden;rotatable=0;points=[[0,0.5],[1,0.5]];portConstraint=eastwest;" parent="ALS_S0XjJy4cKC-Rlqwt-0" vertex="1">
          <mxGeometry y="268" width="580" height="26" as="geometry" />
        </mxCell>
        <mxCell id="ALS_S0XjJy4cKC-Rlqwt-5" value="-timeWorked: int" style="text;align=left;verticalAlign=top;spacingLeft=4;spacingRight=4;overflow=hidden;rotatable=0;points=[[0,0.5],[1,0.5]];portConstraint=eastwest;" parent="ALS_S0XjJy4cKC-Rlqwt-0" vertex="1">
          <mxGeometry y="294" width="580" height="26" as="geometry" />
        </mxCell>
        <mxCell id="ALS_S0XjJy4cKC-Rlqwt-3" value="-subtasksList: TaskList" style="text;align=left;verticalAlign=top;spacingLeft=4;spacingRight=4;overflow=hidden;rotatable=0;points=[[0,0.5],[1,0.5]];portConstraint=eastwest;" parent="ALS_S0XjJy4cKC-Rlqwt-0" vertex="1">
          <mxGeometry y="320" width="580" height="26" as="geometry" />
        </mxCell>
        <mxCell id="JmXwxItgRHhsriWNvllp-21" value="-hasSubtasks: boolean" style="text;align=left;verticalAlign=top;spacingLeft=4;spacingRight=4;overflow=hidden;rotatable=0;points=[[0,0.5],[1,0.5]];portConstraint=eastwest;rounded=0;shadow=0;html=0;" vertex="1" parent="ALS_S0XjJy4cKC-Rlqwt-0">
          <mxGeometry y="346" width="580" height="26" as="geometry" />
        </mxCell>
        <mxCell id="ALS_S0XjJy4cKC-Rlqwt-2" value="-name: String" style="text;align=left;verticalAlign=top;spacingLeft=4;spacingRight=4;overflow=hidden;rotatable=0;points=[[0,0.5],[1,0.5]];portConstraint=eastwest;rounded=0;shadow=0;html=0;" parent="ALS_S0XjJy4cKC-Rlqwt-0" vertex="1">
          <mxGeometry y="372" width="580" height="26" as="geometry" />
        </mxCell>
        <mxCell id="ALS_S0XjJy4cKC-Rlqwt-18" value="Extends" style="endArrow=block;endSize=16;endFill=0;html=1;rounded=0;entryX=0;entryY=0.5;entryDx=0;entryDy=0;exitX=1;exitY=0.5;exitDx=0;exitDy=0;" parent="WIyWlLk6GJQsqaUBKTNV-1" target="Ait7-vDdtjPDSOxOyq5Q-32" edge="1" source="ALS_S0XjJy4cKC-Rlqwt-10">
          <mxGeometry width="160" relative="1" as="geometry">
            <mxPoint x="1200" y="275" as="sourcePoint" />
            <mxPoint x="1480" y="140" as="targetPoint" />
            <Array as="points">
              <mxPoint x="1530" y="280" />
              <mxPoint x="1530" y="350" />
              <mxPoint x="1530" y="460" />
            </Array>
          </mxGeometry>
        </mxCell>
        <mxCell id="ALS_S0XjJy4cKC-Rlqwt-39" value="Garden" style="swimlane;fontStyle=0;align=center;verticalAlign=top;childLayout=stackLayout;horizontal=1;startSize=26;horizontalStack=0;resizeParent=1;resizeLast=0;collapsible=1;marginBottom=0;rounded=0;shadow=0;strokeWidth=1;" parent="WIyWlLk6GJQsqaUBKTNV-1" vertex="1">
          <mxGeometry x="130" y="-310" width="350" height="268" as="geometry">
            <mxRectangle x="130" y="380" width="160" height="26" as="alternateBounds" />
          </mxGeometry>
        </mxCell>
        <mxCell id="YsbC0YVXDWHpj4dUOPJS-5" value="-gardenStr: String" style="text;align=left;verticalAlign=top;spacingLeft=4;spacingRight=4;overflow=hidden;rotatable=0;points=[[0,0.5],[1,0.5]];portConstraint=eastwest;" parent="ALS_S0XjJy4cKC-Rlqwt-39" vertex="1">
          <mxGeometry y="26" width="350" height="26" as="geometry" />
        </mxCell>
        <mxCell id="YsbC0YVXDWHpj4dUOPJS-6" value="-selectedStoreItem: char" style="text;align=left;verticalAlign=top;spacingLeft=4;spacingRight=4;overflow=hidden;rotatable=0;points=[[0,0.5],[1,0.5]];portConstraint=eastwest;" parent="ALS_S0XjJy4cKC-Rlqwt-39" vertex="1">
          <mxGeometry y="52" width="350" height="26" as="geometry" />
        </mxCell>
        <mxCell id="JmXwxItgRHhsriWNvllp-0" value="-selectedTile: int" style="text;align=left;verticalAlign=top;spacingLeft=4;spacingRight=4;overflow=hidden;rotatable=0;points=[[0,0.5],[1,0.5]];portConstraint=eastwest;" vertex="1" parent="ALS_S0XjJy4cKC-Rlqwt-39">
          <mxGeometry y="78" width="350" height="26" as="geometry" />
        </mxCell>
        <mxCell id="JmXwxItgRHhsriWNvllp-1" value="-user: User" style="text;align=left;verticalAlign=top;spacingLeft=4;spacingRight=4;overflow=hidden;rotatable=0;points=[[0,0.5],[1,0.5]];portConstraint=eastwest;" vertex="1" parent="ALS_S0XjJy4cKC-Rlqwt-39">
          <mxGeometry y="104" width="350" height="26" as="geometry" />
        </mxCell>
        <mxCell id="ALS_S0XjJy4cKC-Rlqwt-41" value="" style="line;html=1;strokeWidth=1;align=left;verticalAlign=middle;spacingTop=-1;spacingLeft=3;spacingRight=3;rotatable=0;labelPosition=right;points=[];portConstraint=eastwest;" parent="ALS_S0XjJy4cKC-Rlqwt-39" vertex="1">
          <mxGeometry y="130" width="350" height="8" as="geometry" />
        </mxCell>
        <mxCell id="JmXwxItgRHhsriWNvllp-3" value="+Garden(gardenStr: String, user: User): Garden" style="text;align=left;verticalAlign=top;spacingLeft=4;spacingRight=4;overflow=hidden;rotatable=0;points=[[0,0.5],[1,0.5]];portConstraint=eastwest;" vertex="1" parent="ALS_S0XjJy4cKC-Rlqwt-39">
          <mxGeometry y="138" width="350" height="26" as="geometry" />
        </mxCell>
        <mxCell id="qvWdkY6mnUUvZYQ-Pai6-36" value="+userPurchase(): void" style="text;align=left;verticalAlign=top;spacingLeft=4;spacingRight=4;overflow=hidden;rotatable=0;points=[[0,0.5],[1,0.5]];portConstraint=eastwest;" parent="ALS_S0XjJy4cKC-Rlqwt-39" vertex="1">
          <mxGeometry y="164" width="350" height="26" as="geometry" />
        </mxCell>
        <mxCell id="YsbC0YVXDWHpj4dUOPJS-9" value="+validatePurchase(): void" style="text;align=left;verticalAlign=top;spacingLeft=4;spacingRight=4;overflow=hidden;rotatable=0;points=[[0,0.5],[1,0.5]];portConstraint=eastwest;" parent="ALS_S0XjJy4cKC-Rlqwt-39" vertex="1">
          <mxGeometry y="190" width="350" height="26" as="geometry" />
        </mxCell>
        <mxCell id="YsbC0YVXDWHpj4dUOPJS-11" value="+updateUser(itemCost: int): void" style="text;align=left;verticalAlign=top;spacingLeft=4;spacingRight=4;overflow=hidden;rotatable=0;points=[[0,0.5],[1,0.5]];portConstraint=eastwest;" parent="ALS_S0XjJy4cKC-Rlqwt-39" vertex="1">
          <mxGeometry y="216" width="350" height="26" as="geometry" />
        </mxCell>
        <mxCell id="JmXwxItgRHhsriWNvllp-2" value="+updateUserXPGardenMultiplier(): void" style="text;align=left;verticalAlign=top;spacingLeft=4;spacingRight=4;overflow=hidden;rotatable=0;points=[[0,0.5],[1,0.5]];portConstraint=eastwest;" vertex="1" parent="ALS_S0XjJy4cKC-Rlqwt-39">
          <mxGeometry y="242" width="350" height="26" as="geometry" />
        </mxCell>
        <mxCell id="MwernL8HgeCR46YI8Lrl-3" value="SubTask" style="swimlane;fontStyle=0;align=center;verticalAlign=top;childLayout=stackLayout;horizontal=1;startSize=26;horizontalStack=0;resizeParent=1;resizeLast=0;collapsible=1;marginBottom=0;rounded=0;shadow=0;strokeWidth=1;" parent="WIyWlLk6GJQsqaUBKTNV-1" vertex="1">
          <mxGeometry x="965" y="610" width="350" height="90" as="geometry">
            <mxRectangle x="130" y="380" width="160" height="26" as="alternateBounds" />
          </mxGeometry>
        </mxCell>
        <mxCell id="MwernL8HgeCR46YI8Lrl-7" value="" style="line;html=1;strokeWidth=1;align=left;verticalAlign=middle;spacingTop=-1;spacingLeft=3;spacingRight=3;rotatable=0;labelPosition=right;points=[];portConstraint=eastwest;" parent="MwernL8HgeCR46YI8Lrl-3" vertex="1">
          <mxGeometry y="26" width="350" height="8" as="geometry" />
        </mxCell>
        <mxCell id="qvWdkY6mnUUvZYQ-Pai6-31" value="+getName(): String" style="text;align=left;verticalAlign=top;spacingLeft=4;spacingRight=4;overflow=hidden;rotatable=0;points=[[0,0.5],[1,0.5]];portConstraint=eastwest;" parent="MwernL8HgeCR46YI8Lrl-3" vertex="1">
          <mxGeometry y="34" width="350" height="26" as="geometry" />
        </mxCell>
        <mxCell id="JmXwxItgRHhsriWNvllp-23" value="+getIsCompleted(): boolean" style="text;align=left;verticalAlign=top;spacingLeft=4;spacingRight=4;overflow=hidden;rotatable=0;points=[[0,0.5],[1,0.5]];portConstraint=eastwest;" vertex="1" parent="MwernL8HgeCR46YI8Lrl-3">
          <mxGeometry y="60" width="350" height="26" as="geometry" />
        </mxCell>
        <mxCell id="MwernL8HgeCR46YI8Lrl-10" value="Extends" style="endArrow=block;endSize=16;endFill=0;html=1;rounded=0;exitX=1;exitY=0.5;exitDx=0;exitDy=0;entryX=0;entryY=0.5;entryDx=0;entryDy=0;" parent="WIyWlLk6GJQsqaUBKTNV-1" source="MwernL8HgeCR46YI8Lrl-3" target="Ait7-vDdtjPDSOxOyq5Q-32" edge="1">
          <mxGeometry width="160" relative="1" as="geometry">
            <mxPoint x="1515" y="205" as="sourcePoint" />
            <mxPoint x="1310" y="150" as="targetPoint" />
            <Array as="points">
              <mxPoint x="1530" y="655" />
              <mxPoint x="1530" y="460" />
            </Array>
          </mxGeometry>
        </mxCell>
        <mxCell id="qvWdkY6mnUUvZYQ-Pai6-0" value="" style="endArrow=none;html=1;rounded=0;exitX=0.5;exitY=0;exitDx=0;exitDy=0;entryX=0.457;entryY=1.154;entryDx=0;entryDy=0;entryPerimeter=0;" parent="WIyWlLk6GJQsqaUBKTNV-1" source="zkfFHV4jXpPFQw0GAbJ--0" edge="1" target="JmXwxItgRHhsriWNvllp-2">
          <mxGeometry relative="1" as="geometry">
            <mxPoint x="-324" y="-556" as="sourcePoint" />
            <mxPoint x="655" y="-50" as="targetPoint" />
            <Array as="points">
              <mxPoint x="290" y="-30" />
            </Array>
          </mxGeometry>
        </mxCell>
        <mxCell id="qvWdkY6mnUUvZYQ-Pai6-1" value="1" style="resizable=0;html=1;whiteSpace=wrap;align=left;verticalAlign=bottom;" parent="qvWdkY6mnUUvZYQ-Pai6-0" connectable="0" vertex="1">
          <mxGeometry x="-1" relative="1" as="geometry">
            <mxPoint x="-20" as="offset" />
          </mxGeometry>
        </mxCell>
        <mxCell id="qvWdkY6mnUUvZYQ-Pai6-2" value="1" style="resizable=0;html=1;whiteSpace=wrap;align=right;verticalAlign=bottom;" parent="qvWdkY6mnUUvZYQ-Pai6-0" connectable="0" vertex="1">
          <mxGeometry x="1" relative="1" as="geometry">
            <mxPoint x="-10" y="21" as="offset" />
          </mxGeometry>
        </mxCell>
        <mxCell id="qvWdkY6mnUUvZYQ-Pai6-12" value="" style="endArrow=none;html=1;rounded=0;entryX=0;entryY=0.5;entryDx=0;entryDy=0;exitX=1;exitY=0.5;exitDx=0;exitDy=0;" parent="WIyWlLk6GJQsqaUBKTNV-1" target="Ait7-vDdtjPDSOxOyq5Q-20" edge="1" source="Ait7-vDdtjPDSOxOyq5Q-7">
          <mxGeometry relative="1" as="geometry">
            <mxPoint x="440" y="297" as="sourcePoint" />
            <mxPoint x="500" y="356" as="targetPoint" />
          </mxGeometry>
        </mxCell>
        <mxCell id="qvWdkY6mnUUvZYQ-Pai6-13" value="1" style="resizable=0;html=1;whiteSpace=wrap;align=left;verticalAlign=bottom;" parent="qvWdkY6mnUUvZYQ-Pai6-12" connectable="0" vertex="1">
          <mxGeometry x="-1" relative="1" as="geometry">
            <mxPoint x="5" y="20" as="offset" />
          </mxGeometry>
        </mxCell>
        <mxCell id="qvWdkY6mnUUvZYQ-Pai6-14" value="1" style="resizable=0;html=1;whiteSpace=wrap;align=right;verticalAlign=bottom;" parent="qvWdkY6mnUUvZYQ-Pai6-12" connectable="0" vertex="1">
          <mxGeometry x="1" relative="1" as="geometry">
            <mxPoint x="-10" y="19" as="offset" />
          </mxGeometry>
        </mxCell>
        <mxCell id="qvWdkY6mnUUvZYQ-Pai6-19" value="" style="endArrow=none;html=1;rounded=0;entryX=0.5;entryY=0;entryDx=0;entryDy=0;exitX=0.5;exitY=1;exitDx=0;exitDy=0;" parent="WIyWlLk6GJQsqaUBKTNV-1" source="ALS_S0XjJy4cKC-Rlqwt-0" target="MwernL8HgeCR46YI8Lrl-3" edge="1">
          <mxGeometry relative="1" as="geometry">
            <mxPoint x="1130" y="500" as="sourcePoint" />
            <mxPoint x="1010" y="478" as="targetPoint" />
          </mxGeometry>
        </mxCell>
        <mxCell id="qvWdkY6mnUUvZYQ-Pai6-20" value="1" style="resizable=0;html=1;whiteSpace=wrap;align=left;verticalAlign=bottom;" parent="qvWdkY6mnUUvZYQ-Pai6-19" connectable="0" vertex="1">
          <mxGeometry x="-1" relative="1" as="geometry">
            <mxPoint x="5" y="20" as="offset" />
          </mxGeometry>
        </mxCell>
        <mxCell id="qvWdkY6mnUUvZYQ-Pai6-21" value="0...*" style="resizable=0;html=1;whiteSpace=wrap;align=right;verticalAlign=bottom;" parent="qvWdkY6mnUUvZYQ-Pai6-19" connectable="0" vertex="1">
          <mxGeometry x="1" relative="1" as="geometry">
            <mxPoint x="25" as="offset" />
          </mxGeometry>
        </mxCell>
        <mxCell id="qvWdkY6mnUUvZYQ-Pai6-22" value="" style="endArrow=none;html=1;rounded=0;exitX=1;exitY=0.5;exitDx=0;exitDy=0;entryX=0;entryY=0.5;entryDx=0;entryDy=0;" parent="WIyWlLk6GJQsqaUBKTNV-1" source="Ait7-vDdtjPDSOxOyq5Q-21" edge="1">
          <mxGeometry relative="1" as="geometry">
            <mxPoint x="820" y="170" as="sourcePoint" />
            <mxPoint x="850" y="267" as="targetPoint" />
          </mxGeometry>
        </mxCell>
        <mxCell id="qvWdkY6mnUUvZYQ-Pai6-23" value="1" style="resizable=0;html=1;whiteSpace=wrap;align=left;verticalAlign=bottom;" parent="qvWdkY6mnUUvZYQ-Pai6-22" connectable="0" vertex="1">
          <mxGeometry x="-1" relative="1" as="geometry">
            <mxPoint x="5" y="20" as="offset" />
          </mxGeometry>
        </mxCell>
        <mxCell id="qvWdkY6mnUUvZYQ-Pai6-24" value="0...*" style="resizable=0;html=1;whiteSpace=wrap;align=right;verticalAlign=bottom;" parent="qvWdkY6mnUUvZYQ-Pai6-22" connectable="0" vertex="1">
          <mxGeometry x="1" relative="1" as="geometry">
            <mxPoint y="19" as="offset" />
          </mxGeometry>
        </mxCell>
        <mxCell id="YVFFXtC8Z3cBLg9flGzX-34" value="Day" style="swimlane;fontStyle=0;align=center;verticalAlign=top;childLayout=stackLayout;horizontal=1;startSize=30;horizontalStack=0;resizeParent=1;resizeLast=0;collapsible=1;marginBottom=0;rounded=0;shadow=0;strokeWidth=1;" parent="WIyWlLk6GJQsqaUBKTNV-1" vertex="1">
          <mxGeometry x="-270" y="560" width="220" height="150" as="geometry">
            <mxRectangle x="-270" y="560" width="160" height="26" as="alternateBounds" />
          </mxGeometry>
        </mxCell>
        <mxCell id="YVFFXtC8Z3cBLg9flGzX-36" value="-dayDate: Date()" style="text;align=left;verticalAlign=top;spacingLeft=4;spacingRight=4;overflow=hidden;rotatable=0;points=[[0,0.5],[1,0.5]];portConstraint=eastwest;" parent="YVFFXtC8Z3cBLg9flGzX-34" vertex="1">
          <mxGeometry y="30" width="220" height="26" as="geometry" />
        </mxCell>
        <mxCell id="YVFFXtC8Z3cBLg9flGzX-44" value="-indexList: int[]" style="text;align=left;verticalAlign=top;spacingLeft=4;spacingRight=4;overflow=hidden;rotatable=0;points=[[0,0.5],[1,0.5]];portConstraint=eastwest;" parent="YVFFXtC8Z3cBLg9flGzX-34" vertex="1">
          <mxGeometry y="56" width="220" height="26" as="geometry" />
        </mxCell>
        <mxCell id="YVFFXtC8Z3cBLg9flGzX-35" value="" style="line;html=1;strokeWidth=1;align=left;verticalAlign=middle;spacingTop=-1;spacingLeft=3;spacingRight=3;rotatable=0;labelPosition=right;points=[];portConstraint=eastwest;" parent="YVFFXtC8Z3cBLg9flGzX-34" vertex="1">
          <mxGeometry y="82" width="220" height="8" as="geometry" />
        </mxCell>
        <mxCell id="JmXwxItgRHhsriWNvllp-12" value="+Day(dayDate: Date()): Day" style="text;align=left;verticalAlign=top;spacingLeft=4;spacingRight=4;overflow=hidden;rotatable=0;points=[[0,0.5],[1,0.5]];portConstraint=eastwest;" vertex="1" parent="YVFFXtC8Z3cBLg9flGzX-34">
          <mxGeometry y="90" width="220" height="26" as="geometry" />
        </mxCell>
        <mxCell id="hJcpjJ_fGHvMyjLJlIIc-42" value="+add(taskIndex): void" style="text;align=left;verticalAlign=top;spacingLeft=4;spacingRight=4;overflow=hidden;rotatable=0;points=[[0,0.5],[1,0.5]];portConstraint=eastwest;" parent="YVFFXtC8Z3cBLg9flGzX-34" vertex="1">
          <mxGeometry y="116" width="220" height="26" as="geometry" />
        </mxCell>
        <mxCell id="YVFFXtC8Z3cBLg9flGzX-47" value="0..*" style="resizable=0;html=1;whiteSpace=wrap;align=right;verticalAlign=bottom;" parent="WIyWlLk6GJQsqaUBKTNV-1" connectable="0" vertex="1">
          <mxGeometry x="-170.00494763159685" y="549.9976872538666" as="geometry">
            <mxPoint x="7" y="6" as="offset" />
          </mxGeometry>
        </mxCell>
        <mxCell id="YVFFXtC8Z3cBLg9flGzX-48" value="1" style="resizable=0;html=1;whiteSpace=wrap;align=right;verticalAlign=bottom;" parent="WIyWlLk6GJQsqaUBKTNV-1" connectable="0" vertex="1">
          <mxGeometry x="-170.00494763159685" y="469.9976872538666" as="geometry" />
        </mxCell>
        <mxCell id="YVFFXtC8Z3cBLg9flGzX-50" value="" style="endArrow=none;html=1;rounded=0;entryX=0.5;entryY=0;entryDx=0;entryDy=0;exitX=0.497;exitY=1.115;exitDx=0;exitDy=0;exitPerimeter=0;" parent="WIyWlLk6GJQsqaUBKTNV-1" target="YVFFXtC8Z3cBLg9flGzX-34" edge="1" source="JmXwxItgRHhsriWNvllp-10">
          <mxGeometry relative="1" as="geometry">
            <mxPoint x="-100" y="722" as="sourcePoint" />
            <mxPoint x="-240" y="832" as="targetPoint" />
          </mxGeometry>
        </mxCell>
        <mxCell id="YsbC0YVXDWHpj4dUOPJS-17" value="DailyObjectivesList" style="swimlane;fontStyle=0;align=center;verticalAlign=top;childLayout=stackLayout;horizontal=1;startSize=26;horizontalStack=0;resizeParent=1;resizeLast=0;collapsible=1;marginBottom=0;rounded=0;shadow=0;strokeWidth=1;" parent="WIyWlLk6GJQsqaUBKTNV-1" vertex="1">
          <mxGeometry x="-350" y="133" width="380" height="268" as="geometry">
            <mxRectangle x="340" y="380" width="170" height="26" as="alternateBounds" />
          </mxGeometry>
        </mxCell>
        <mxCell id="JmXwxItgRHhsriWNvllp-5" value="-objTaskList: TaskList" style="text;align=left;verticalAlign=top;spacingLeft=4;spacingRight=4;overflow=hidden;rotatable=0;points=[[0,0.5],[1,0.5]];portConstraint=eastwest;" vertex="1" parent="YsbC0YVXDWHpj4dUOPJS-17">
          <mxGeometry y="26" width="380" height="26" as="geometry" />
        </mxCell>
        <mxCell id="JmXwxItgRHhsriWNvllp-7" value="-dayList: Day[]&#xa;" style="text;align=left;verticalAlign=top;spacingLeft=4;spacingRight=4;overflow=hidden;rotatable=0;points=[[0,0.5],[1,0.5]];portConstraint=eastwest;" vertex="1" parent="YsbC0YVXDWHpj4dUOPJS-17">
          <mxGeometry y="52" width="380" height="26" as="geometry" />
        </mxCell>
        <mxCell id="JmXwxItgRHhsriWNvllp-6" value="-objectivesList: Objective[]" style="text;align=left;verticalAlign=top;spacingLeft=4;spacingRight=4;overflow=hidden;rotatable=0;points=[[0,0.5],[1,0.5]];portConstraint=eastwest;" vertex="1" parent="YsbC0YVXDWHpj4dUOPJS-17">
          <mxGeometry y="78" width="380" height="26" as="geometry" />
        </mxCell>
        <mxCell id="JmXwxItgRHhsriWNvllp-4" value="-bonusMultiplier: int;" style="text;align=left;verticalAlign=top;spacingLeft=4;spacingRight=4;overflow=hidden;rotatable=0;points=[[0,0.5],[1,0.5]];portConstraint=eastwest;" vertex="1" parent="YsbC0YVXDWHpj4dUOPJS-17">
          <mxGeometry y="104" width="380" height="26" as="geometry" />
        </mxCell>
        <mxCell id="YsbC0YVXDWHpj4dUOPJS-19" value="" style="line;html=1;strokeWidth=1;align=left;verticalAlign=middle;spacingTop=-1;spacingLeft=3;spacingRight=3;rotatable=0;labelPosition=right;points=[];portConstraint=eastwest;" parent="YsbC0YVXDWHpj4dUOPJS-17" vertex="1">
          <mxGeometry y="130" width="380" height="8" as="geometry" />
        </mxCell>
        <mxCell id="hJcpjJ_fGHvMyjLJlIIc-33" value="+DailyObjectivesList(objTaskList: TaskList): DailyObjectivesList" style="text;align=left;verticalAlign=top;spacingLeft=4;spacingRight=4;overflow=hidden;rotatable=0;points=[[0,0.5],[1,0.5]];portConstraint=eastwest;" parent="YsbC0YVXDWHpj4dUOPJS-17" vertex="1">
          <mxGeometry y="138" width="380" height="26" as="geometry" />
        </mxCell>
        <mxCell id="hJcpjJ_fGHvMyjLJlIIc-30" value="+createDayList(): void" style="text;align=left;verticalAlign=top;spacingLeft=4;spacingRight=4;overflow=hidden;rotatable=0;points=[[0,0.5],[1,0.5]];portConstraint=eastwest;" parent="YsbC0YVXDWHpj4dUOPJS-17" vertex="1">
          <mxGeometry y="164" width="380" height="26" as="geometry" />
        </mxCell>
        <mxCell id="JmXwxItgRHhsriWNvllp-8" value="+pushInPlace(dayToPush: Day): void" style="text;align=left;verticalAlign=top;spacingLeft=4;spacingRight=4;overflow=hidden;rotatable=0;points=[[0,0.5],[1,0.5]];portConstraint=eastwest;" vertex="1" parent="YsbC0YVXDWHpj4dUOPJS-17">
          <mxGeometry y="190" width="380" height="26" as="geometry" />
        </mxCell>
        <mxCell id="JmXwxItgRHhsriWNvllp-9" value="+createObjectives(): void" style="text;align=left;verticalAlign=top;spacingLeft=4;spacingRight=4;overflow=hidden;rotatable=0;points=[[0,0.5],[1,0.5]];portConstraint=eastwest;" vertex="1" parent="YsbC0YVXDWHpj4dUOPJS-17">
          <mxGeometry y="216" width="380" height="26" as="geometry" />
        </mxCell>
        <mxCell id="JmXwxItgRHhsriWNvllp-10" value="+displayObjectivesList(): void" style="text;align=left;verticalAlign=top;spacingLeft=4;spacingRight=4;overflow=hidden;rotatable=0;points=[[0,0.5],[1,0.5]];portConstraint=eastwest;" vertex="1" parent="YsbC0YVXDWHpj4dUOPJS-17">
          <mxGeometry y="242" width="380" height="26" as="geometry" />
        </mxCell>
        <mxCell id="YsbC0YVXDWHpj4dUOPJS-25" value="Objective" style="swimlane;fontStyle=0;align=center;verticalAlign=top;childLayout=stackLayout;horizontal=1;startSize=26;horizontalStack=0;resizeParent=1;resizeLast=0;collapsible=1;marginBottom=0;rounded=0;shadow=0;strokeWidth=1;" parent="WIyWlLk6GJQsqaUBKTNV-1" vertex="1">
          <mxGeometry x="-820" y="514" width="410" height="242" as="geometry">
            <mxRectangle x="340" y="380" width="170" height="26" as="alternateBounds" />
          </mxGeometry>
        </mxCell>
        <mxCell id="YsbC0YVXDWHpj4dUOPJS-26" value="-objName: String" style="text;align=left;verticalAlign=top;spacingLeft=4;spacingRight=4;overflow=hidden;rotatable=0;points=[[0,0.5],[1,0.5]];portConstraint=eastwest;" parent="YsbC0YVXDWHpj4dUOPJS-25" vertex="1">
          <mxGeometry y="26" width="410" height="26" as="geometry" />
        </mxCell>
        <mxCell id="hJcpjJ_fGHvMyjLJlIIc-39" value="-timeToWorl: int" style="text;align=left;verticalAlign=top;spacingLeft=4;spacingRight=4;overflow=hidden;rotatable=0;points=[[0,0.5],[1,0.5]];portConstraint=eastwest;" parent="YsbC0YVXDWHpj4dUOPJS-25" vertex="1">
          <mxGeometry y="52" width="410" height="26" as="geometry" />
        </mxCell>
        <mxCell id="YsbC0YVXDWHpj4dUOPJS-28" value="-taskListIndex: int" style="text;align=left;verticalAlign=top;spacingLeft=4;spacingRight=4;overflow=hidden;rotatable=0;points=[[0,0.5],[1,0.5]];portConstraint=eastwest;" parent="YsbC0YVXDWHpj4dUOPJS-25" vertex="1">
          <mxGeometry y="78" width="410" height="26" as="geometry" />
        </mxCell>
        <mxCell id="JmXwxItgRHhsriWNvllp-15" value="-timeWorkedOn: int" style="text;align=left;verticalAlign=top;spacingLeft=4;spacingRight=4;overflow=hidden;rotatable=0;points=[[0,0.5],[1,0.5]];portConstraint=eastwest;" vertex="1" parent="YsbC0YVXDWHpj4dUOPJS-25">
          <mxGeometry y="104" width="410" height="26" as="geometry" />
        </mxCell>
        <mxCell id="JmXwxItgRHhsriWNvllp-16" value="-isComplete: boolean" style="text;align=left;verticalAlign=top;spacingLeft=4;spacingRight=4;overflow=hidden;rotatable=0;points=[[0,0.5],[1,0.5]];portConstraint=eastwest;" vertex="1" parent="YsbC0YVXDWHpj4dUOPJS-25">
          <mxGeometry y="130" width="410" height="26" as="geometry" />
        </mxCell>
        <mxCell id="YsbC0YVXDWHpj4dUOPJS-27" value="" style="line;html=1;strokeWidth=1;align=left;verticalAlign=middle;spacingTop=-1;spacingLeft=3;spacingRight=3;rotatable=0;labelPosition=right;points=[];portConstraint=eastwest;" parent="YsbC0YVXDWHpj4dUOPJS-25" vertex="1">
          <mxGeometry y="156" width="410" height="8" as="geometry" />
        </mxCell>
        <mxCell id="YsbC0YVXDWHpj4dUOPJS-29" value="+Objective(objName: String, timeToWork: int, taskListIndex: int): Objective" style="text;align=left;verticalAlign=top;spacingLeft=4;spacingRight=4;overflow=hidden;rotatable=0;points=[[0,0.5],[1,0.5]];portConstraint=eastwest;" parent="YsbC0YVXDWHpj4dUOPJS-25" vertex="1">
          <mxGeometry y="164" width="410" height="26" as="geometry" />
        </mxCell>
        <mxCell id="YsbC0YVXDWHpj4dUOPJS-40" value="+update(timeWorked: int): void" style="text;align=left;verticalAlign=top;spacingLeft=4;spacingRight=4;overflow=hidden;rotatable=0;points=[[0,0.5],[1,0.5]];portConstraint=eastwest;" parent="YsbC0YVXDWHpj4dUOPJS-25" vertex="1">
          <mxGeometry y="190" width="410" height="26" as="geometry" />
        </mxCell>
        <mxCell id="hJcpjJ_fGHvMyjLJlIIc-41" value="+printObjective(): void" style="text;align=left;verticalAlign=top;spacingLeft=4;spacingRight=4;overflow=hidden;rotatable=0;points=[[0,0.5],[1,0.5]];portConstraint=eastwest;" parent="YsbC0YVXDWHpj4dUOPJS-25" vertex="1">
          <mxGeometry y="216" width="410" height="26" as="geometry" />
        </mxCell>
        <mxCell id="YsbC0YVXDWHpj4dUOPJS-37" value="" style="endArrow=none;html=1;rounded=0;exitX=0;exitY=0.5;exitDx=0;exitDy=0;entryX=1;entryY=0.5;entryDx=0;entryDy=0;" parent="WIyWlLk6GJQsqaUBKTNV-1" source="Ait7-vDdtjPDSOxOyq5Q-41" edge="1" target="YsbC0YVXDWHpj4dUOPJS-17">
          <mxGeometry relative="1" as="geometry">
            <mxPoint x="145" y="297" as="sourcePoint" />
            <mxPoint x="60" y="293" as="targetPoint" />
          </mxGeometry>
        </mxCell>
        <mxCell id="YsbC0YVXDWHpj4dUOPJS-38" value="1" style="resizable=0;html=1;whiteSpace=wrap;align=left;verticalAlign=bottom;" parent="YsbC0YVXDWHpj4dUOPJS-37" connectable="0" vertex="1">
          <mxGeometry x="-1" relative="1" as="geometry">
            <mxPoint x="-15" y="-3" as="offset" />
          </mxGeometry>
        </mxCell>
        <mxCell id="YsbC0YVXDWHpj4dUOPJS-39" value="1" style="resizable=0;html=1;whiteSpace=wrap;align=right;verticalAlign=bottom;" parent="YsbC0YVXDWHpj4dUOPJS-37" connectable="0" vertex="1">
          <mxGeometry x="1" relative="1" as="geometry">
            <mxPoint x="15" as="offset" />
          </mxGeometry>
        </mxCell>
        <mxCell id="JmXwxItgRHhsriWNvllp-17" value="" style="endArrow=none;html=1;rounded=0;entryX=1;entryY=0.5;entryDx=0;entryDy=0;exitX=0;exitY=0.5;exitDx=0;exitDy=0;" edge="1" parent="WIyWlLk6GJQsqaUBKTNV-1" source="YVFFXtC8Z3cBLg9flGzX-44" target="JmXwxItgRHhsriWNvllp-15">
          <mxGeometry relative="1" as="geometry">
            <mxPoint x="-151" y="463" as="sourcePoint" />
            <mxPoint x="-150" y="570" as="targetPoint" />
          </mxGeometry>
        </mxCell>
        <mxCell id="JmXwxItgRHhsriWNvllp-18" value="1" style="resizable=0;html=1;whiteSpace=wrap;align=right;verticalAlign=bottom;" connectable="0" vertex="1" parent="WIyWlLk6GJQsqaUBKTNV-1">
          <mxGeometry x="-270.00494763159685" y="629.9976872538666" as="geometry" />
        </mxCell>
        <mxCell id="JmXwxItgRHhsriWNvllp-19" value="1..*" style="resizable=0;html=1;whiteSpace=wrap;align=right;verticalAlign=bottom;" connectable="0" vertex="1" parent="WIyWlLk6GJQsqaUBKTNV-1">
          <mxGeometry x="-160.00494763159685" y="559.9976872538666" as="geometry">
            <mxPoint x="-217" y="67" as="offset" />
          </mxGeometry>
        </mxCell>
        <mxCell id="JmXwxItgRHhsriWNvllp-25" value="&lt;&lt;static&gt;&gt;&#xa;DateManipulation" style="swimlane;fontStyle=0;align=center;verticalAlign=top;childLayout=stackLayout;horizontal=1;startSize=44;horizontalStack=0;resizeParent=1;resizeLast=0;collapsible=1;marginBottom=0;rounded=0;shadow=0;strokeWidth=1;" vertex="1" parent="WIyWlLk6GJQsqaUBKTNV-1">
          <mxGeometry x="210" y="514" width="380" height="134" as="geometry">
            <mxRectangle x="340" y="380" width="170" height="26" as="alternateBounds" />
          </mxGeometry>
        </mxCell>
        <mxCell id="JmXwxItgRHhsriWNvllp-30" value="" style="line;html=1;strokeWidth=1;align=left;verticalAlign=middle;spacingTop=-1;spacingLeft=3;spacingRight=3;rotatable=0;labelPosition=right;points=[];portConstraint=eastwest;" vertex="1" parent="JmXwxItgRHhsriWNvllp-25">
          <mxGeometry y="44" width="380" height="8" as="geometry" />
        </mxCell>
        <mxCell id="JmXwxItgRHhsriWNvllp-31" value="+daysUntilDue(dueDate: Date())" style="text;align=left;verticalAlign=top;spacingLeft=4;spacingRight=4;overflow=hidden;rotatable=0;points=[[0,0.5],[1,0.5]];portConstraint=eastwest;" vertex="1" parent="JmXwxItgRHhsriWNvllp-25">
          <mxGeometry y="52" width="380" height="26" as="geometry" />
        </mxCell>
        <mxCell id="JmXwxItgRHhsriWNvllp-32" value="+formatTimeFromMinutes(timeInMinutes: int): String" style="text;align=left;verticalAlign=top;spacingLeft=4;spacingRight=4;overflow=hidden;rotatable=0;points=[[0,0.5],[1,0.5]];portConstraint=eastwest;" vertex="1" parent="JmXwxItgRHhsriWNvllp-25">
          <mxGeometry y="78" width="380" height="26" as="geometry" />
        </mxCell>
        <mxCell id="JmXwxItgRHhsriWNvllp-36" value="+formatTimeFromSeconds(timeInSeconds: int): String" style="text;align=left;verticalAlign=top;spacingLeft=4;spacingRight=4;overflow=hidden;rotatable=0;points=[[0,0.5],[1,0.5]];portConstraint=eastwest;" vertex="1" parent="JmXwxItgRHhsriWNvllp-25">
          <mxGeometry y="104" width="380" height="26" as="geometry" />
        </mxCell>
      </root>
    </mxGraphModel>
  </diagram>
</mxfile>
